<svg width="142" height="40" viewBox="0 0 142 40" fill="none" xmlns="http://www.w3.org/2000/svg">
<path d="M49.6066 35.3033C46.9774 35.3033 44.72 34.8354 42.8344 33.8995C40.9489 32.9636 39.4086 31.747 38.2135 30.2495C37.045 28.7521 36.1819 27.121 35.6242 25.3562C35.0664 23.5913 34.7876 21.8934 34.7876 20.2622V19.3798C34.7876 17.5615 35.0664 15.77 35.6242 14.0051C36.2084 12.2403 37.0981 10.6359 38.2932 9.19199C39.4882 7.74804 41.002 6.59823 42.8344 5.74256C44.6935 4.86015 46.8844 4.41895 49.4074 4.41895C52.0365 4.41895 54.3205 4.90026 56.2591 5.86289C58.2244 6.79878 59.7913 8.13577 60.9598 9.87385C62.1283 11.5852 62.8321 13.5907 63.0711 15.8903H57.3745C57.1621 14.5533 56.6841 13.4302 55.9405 12.5211C55.2234 11.5852 54.3072 10.89 53.1918 10.4354C52.0764 9.95407 50.8149 9.71341 49.4074 9.71341C47.9733 9.71341 46.6985 9.96744 45.5831 10.4755C44.4677 10.9568 43.5382 11.652 42.7946 12.5612C42.051 13.4703 41.48 14.5399 41.0817 15.77C40.7099 17 40.524 18.3637 40.524 19.8611C40.524 21.3051 40.7099 22.6421 41.0817 23.8721C41.48 25.1021 42.0643 26.1851 42.8344 27.121C43.6046 28.0301 44.5474 28.7387 45.6628 29.2468C46.8048 29.7548 48.1193 30.0089 49.6066 30.0089C51.7842 30.0089 53.6167 29.4741 55.1039 28.4045C56.6177 27.3082 57.5339 25.784 57.8526 23.832H63.5491C63.2835 25.9177 62.5798 27.8296 61.4378 29.5677C60.2958 31.3057 58.729 32.6962 56.7372 33.7391C54.7454 34.7819 52.3685 35.3033 49.6066 35.3033Z" fill="#111827"/>
<path d="M65.8926 34.5413V4.41895H71.4298V16.4617C71.9831 15.0894 72.7665 14.0299 73.7801 13.2832C74.8955 12.481 76.303 12.0799 78.0027 12.0799H78.2417C80.7115 12.0799 82.5838 12.9356 83.8586 14.6469C85.1333 16.3582 85.7707 18.845 85.7707 22.1073V34.5413H80.2335V21.5859C80.2335 20.1954 79.8351 19.0991 79.0384 18.2969C78.2683 17.4947 77.2458 17.0936 75.9711 17.0936C74.6166 17.0936 73.5145 17.5482 72.6647 18.4573C71.8414 19.3397 71.4298 20.5029 71.4298 21.9468V34.5413H65.8926Z" fill="#111827"/>
<path fill-rule="evenodd" clip-rule="evenodd" d="M102.838 30.3469V34.5413H107.22V21.0243C107.22 18.9921 106.835 17.3476 106.065 16.0908C105.321 14.8341 104.206 13.9116 102.718 13.3233C101.258 12.735 99.412 12.4409 97.1812 12.4409C96.4641 12.4409 95.694 12.4542 94.8707 12.481C94.074 12.481 93.2905 12.5077 92.5204 12.5612C91.7502 12.6147 91.0597 12.6682 90.4489 12.7216V17.4546C91.1925 17.4011 92.0291 17.361 92.9586 17.3342C93.9146 17.2808 94.8574 17.2406 95.7869 17.2139C96.7164 17.1872 97.5131 17.1738 98.1771 17.1738C99.4518 17.1738 100.395 17.4813 101.005 18.0963C101.616 18.7113 101.922 19.6472 101.922 20.904V21.1045H97.4999C95.5877 21.1045 93.9146 21.3586 92.4806 21.8666C91.073 22.3747 89.9709 23.1368 89.1742 24.1529C88.404 25.169 88.0189 26.4792 88.0189 28.0836C88.0189 29.5543 88.3376 30.8111 88.975 31.8539C89.6389 32.8968 90.5551 33.699 91.7237 34.2605C92.9187 34.822 94.2997 35.1028 95.8666 35.1028C97.3804 35.1028 98.6551 34.8354 99.6908 34.3006C100.753 33.7391 101.576 32.9369 102.161 31.894C102.434 31.4267 102.66 30.911 102.838 30.3469ZM101.922 26.4792V24.4336H97.4202C96.1455 24.4336 95.1628 24.7545 94.4723 25.3963C93.8084 26.0113 93.4765 26.8135 93.4765 27.8028C93.4765 28.7922 93.8084 29.5944 94.4723 30.2094C95.1628 30.8244 96.1455 31.1319 97.4202 31.1319C98.1904 31.1319 98.8941 30.9982 99.5315 30.7308C100.195 30.4367 100.74 29.9554 101.165 29.2869C101.616 28.5917 101.869 27.6558 101.922 26.4792Z" fill="#111827"/>
<path d="M112.195 34.5413V12.4409H117.732V34.5413H112.195Z" fill="#111827"/>
<path d="M122.122 12.4409V34.5413H127.659V21.7463C127.659 20.3291 128.071 19.206 128.894 18.3771C129.744 17.5214 130.846 17.0936 132.2 17.0936C133.528 17.0936 134.564 17.508 135.308 18.337C136.078 19.1659 136.463 20.2489 136.463 21.5859V34.5413H142V22.0672C142 18.7514 141.336 16.2646 140.008 14.6068C138.68 12.9222 136.728 12.0799 134.152 12.0799H133.913C132.187 12.0799 130.74 12.4542 129.571 13.2029C128.429 13.9517 127.566 15.0747 126.982 16.5722C126.792 17.0513 126.632 17.5702 126.504 18.1288V12.4409H122.122Z" fill="#111827"/>
<path d="M0 25.318C-2.54889e-07 27.2751 1.57603 28.8623 3.52013 28.8623C5.46422 28.8623 7.04025 27.2751 7.04025 25.318C7.04025 23.883 4.97387 22.5332 4.97387 20.0015C4.97387 17.723 7.04025 16.12 7.04025 14.685C7.04025 12.728 5.46423 11.1407 3.52013 11.1407C1.57603 11.1407 1.63972e-06 12.728 1.38483e-06 14.685C1.19794e-06 16.12 2.06638 17.723 2.06638 20.0015C2.06638 22.28 1.86885e-07 23.883 0 25.318Z" fill="#111827"/>
<path d="M17.0973 3.54431C17.0973 1.58723 18.6733 -2.56689e-07 20.6174 0C22.5615 2.56689e-07 24.1375 1.58723 24.1375 3.54431C24.1375 4.16062 23.7564 4.76124 23.3214 5.44654C22.7437 6.35681 22.0712 7.41648 22.0712 8.86078C22.0712 10.1311 22.7135 11.1915 23.2819 12.1299C23.733 12.8745 24.1375 13.5424 24.1375 14.1772C24.1375 14.2624 24.1346 14.3468 24.1287 14.4304C24.1346 14.514 24.1375 14.5984 24.1375 14.6835C24.1375 15.2998 23.7564 15.9004 23.3214 16.5857C22.7437 17.496 22.0712 18.5557 22.0712 20C22.0712 21.2703 22.7135 22.3307 23.2819 23.2691C23.733 24.0137 24.1375 24.6815 24.1375 25.3164C24.1375 25.4015 24.1346 25.486 24.1287 25.5696C24.1346 25.6532 24.1375 25.7376 24.1375 25.8228C24.1375 26.4577 23.733 27.1255 23.2819 27.8701C22.7135 28.8085 22.0712 29.8689 22.0712 31.1392C22.0712 32.5835 22.7437 33.6432 23.3214 34.5535C23.7564 35.2388 24.1375 35.8394 24.1375 36.4557C24.1375 38.4128 22.5615 40 20.6174 40C18.6733 40 17.0973 38.4128 17.0973 36.4557C17.0973 35.8208 17.5018 35.153 17.9529 34.4083C18.5213 33.47 19.1637 32.4096 19.1637 31.1392C19.1637 29.8689 18.5213 28.8085 17.9529 27.8701C17.5018 27.1255 17.0973 26.4576 17.0973 25.8228C17.0973 25.7376 17.1003 25.6532 17.1061 25.5696C17.1003 25.486 17.0973 25.4016 17.0973 25.3164C17.0973 24.6815 17.5018 24.0137 17.9529 23.2691C18.5213 22.3307 19.1637 21.2703 19.1637 20C19.1637 18.7296 18.5213 17.6692 17.9529 16.7309C17.5018 15.9862 17.0973 15.3184 17.0973 14.6835C17.0973 14.5984 17.1003 14.514 17.1061 14.4304C17.1003 14.3468 17.0973 14.2624 17.0973 14.1772C17.0973 13.5424 17.5018 12.8745 17.9529 12.1299C18.5213 11.1915 19.1637 10.1311 19.1637 8.86078C19.1637 7.59042 18.5213 6.53003 17.9529 5.59168C17.5018 4.84701 17.0973 4.1792 17.0973 3.54431Z" fill="#111827"/>
<path d="M12.0685 34.4312C10.1244 34.4312 8.54833 32.844 8.54833 30.8869C8.54833 30.252 8.95286 29.5842 9.40395 28.8395C9.97237 27.9012 10.6147 26.8408 10.6147 25.5704C10.6147 24.3001 9.97237 23.2397 9.40395 22.3013C8.95286 21.5567 8.54833 20.8889 8.54833 20.254C8.54833 20.1688 8.55131 20.0844 8.55717 20.0008C8.55131 19.9172 8.54833 19.8328 8.54833 19.7476C8.54833 19.1127 8.95286 18.4449 9.40394 17.7003C9.97236 16.7619 10.6147 15.7015 10.6147 14.4312C10.6147 13.1608 9.97236 12.1004 9.40394 11.1621C8.95286 10.4174 8.54833 9.74959 8.54833 9.11469C8.54833 7.15761 10.1244 5.57038 12.0685 5.57038C14.0126 5.57038 15.5886 7.15761 15.5886 9.11469C15.5886 9.731 15.2074 10.3316 14.7724 11.0169C14.1947 11.9272 13.5222 12.9869 13.5222 14.4312C13.5222 15.7015 14.1645 16.7619 14.733 17.7003C15.184 18.4449 15.5886 19.1127 15.5886 19.7476C15.5886 19.8327 15.5856 19.9171 15.5797 20.0008C15.5856 20.0844 15.5886 20.1688 15.5886 20.254C15.5886 20.8889 15.1841 21.5567 14.733 22.3013C14.1645 23.2397 13.5222 24.3001 13.5222 25.5704C13.5222 27.0147 14.1947 28.0744 14.7725 28.9847C15.2074 29.67 15.5886 30.2706 15.5886 30.8869C15.5886 32.844 14.0126 34.4312 12.0685 34.4312Z" fill="#111827"/>
</svg>
